<svg xmlns="http://www.w3.org/2000/svg" viewBox="0 0 800 1400" width="800" height="1400" role="img">
  <defs>
    <linearGradient id="bg" x1="0" y1="0" x2="1" y2="1">
      <stop offset="0" stop-color="#070a12"/>
      <stop offset="1" stop-color="#04060b"/>
    </linearGradient>
    <radialGradient id="glow" cx="0.78" cy="0.16" r="0.7">
      <stop offset="0" stop-color="#FF7A4D" stop-opacity="0.24"/>
      <stop offset="1" stop-color="#FF7A4D" stop-opacity="0"/>
    </radialGradient>
    <pattern id="grid" width="48" height="48" patternUnits="userSpaceOnUse">
      <path d="M48 0H0V48" fill="none" stroke="#8fa3bf" stroke-opacity="0.05" stroke-width="1"/>
    </pattern>
  </defs>
  <rect width="800" height="1400" fill="url(#bg)"/>
  <rect width="800" height="1400" fill="url(#grid)"/>
  <rect width="800" height="1400" fill="url(#glow)"/>
  <ellipse cx="656" cy="168" rx="272" ry="280" fill="none" stroke="#FF7A4D" stroke-opacity="0.16"/>
  <ellipse cx="656" cy="168" rx="176" ry="182" fill="none" stroke="#FF7A4D" stroke-opacity="0.1"/>
  <rect x="48" y="98" width="113" height="10" rx="2" fill="#FF7A4D" opacity="0.85"/><rect x="400" y="105" width="56" height="7" rx="2" fill="#94a3b8" opacity="0.34"/><rect x="484" y="105" width="56" height="7" rx="2" fill="#94a3b8" opacity="0.34"/><rect x="568" y="105" width="56" height="7" rx="2" fill="#94a3b8" opacity="0.34"/><rect x="652" y="105" width="56" height="7" rx="2" fill="#94a3b8" opacity="0.34"/><rect x="48" y="266" width="521" height="34" rx="3" fill="#e2e8f0" opacity="0.9"/><rect x="48" y="314" width="366" height="34" rx="3" fill="#e2e8f0" opacity="0.55"/><rect x="48" y="378" width="253" height="9" rx="2" fill="#94a3b8" opacity="0.4"/><rect x="48" y="396" width="211" height="9" rx="2" fill="#94a3b8" opacity="0.28"/><rect x="48" y="434" width="134" height="38" rx="2" fill="#FF7A4D"/><rect x="48" y="868" width="704" height="105" rx="3" fill="#0d1220" stroke="#1c2431"/><circle cx="82" cy="921" r="12" fill="#FF7A4D" opacity="0.75"/><rect x="110" y="907" width="211" height="11" rx="2" fill="#e2e8f0" opacity="0.55"/><rect x="622" y="904" width="110" height="26" rx="2" fill="#FF7A4D" opacity="0.9"/><rect x="48" y="1008" width="704" height="105" rx="3" fill="#0d1220" stroke="#1c2431"/><circle cx="82" cy="1061" r="12" fill="#FF7A4D" opacity="0.75"/><rect x="110" y="1047" width="211" height="11" rx="2" fill="#e2e8f0" opacity="0.55"/><rect x="622" y="1044" width="110" height="26" rx="2" fill="#FF7A4D" opacity="0.9"/><rect x="48" y="1148" width="704" height="105" rx="3" fill="#0d1220" stroke="#1c2431"/><circle cx="82" cy="1201" r="12" fill="#FF7A4D" opacity="0.75"/><rect x="110" y="1187" width="211" height="11" rx="2" fill="#e2e8f0" opacity="0.55"/><rect x="622" y="1184" width="110" height="26" rx="2" fill="#FF7A4D" opacity="0.9"/>
  <text x="48" y="1366" font-family="ui-monospace, SFMono-Regular, Menlo, monospace" font-size="11" letter-spacing="2.4" fill="#8fa3bf" fill-opacity="0.75">DAMIANCEBULA-SERWIS.PL</text>
  <text x="752" y="1366" text-anchor="end" font-family="ui-monospace, SFMono-Regular, Menlo, monospace" font-size="11" letter-spacing="2.4" fill="#FF7A4D" fill-opacity="0.8">MOBILE</text>
  <title>Damian Cebula Serwis — damiancebula-serwis.pl</title>
</svg>